<svg width="16" height="16" viewBox="0 0 16 16" fill="none" xmlns="http://www.w3.org/2000/svg">
<g clip-path="url(#clip0_91_138)">
<path d="M8.00004 13.3333C5.06004 13.3333 2.66671 10.9399 2.66671 7.99992C2.66671 5.05992 5.06004 2.66659 8.00004 2.66659C10.94 2.66659 13.3334 5.05992 13.3334 7.99992C13.3334 10.9399 10.94 13.3333 8.00004 13.3333ZM8.00004 1.33325C4.31337 1.33325 1.33337 4.31325 1.33337 7.99992C1.33337 11.6866 4.31337 14.6666 8.00004 14.6666C11.6867 14.6666 14.6667 11.6866 14.6667 7.99992C14.6667 4.31325 11.6867 1.33325 8.00004 1.33325ZM9.72671 5.33325L8.00004 7.05992L6.27337 5.33325L5.33337 6.27325L7.06004 7.99992L5.33337 9.72659L6.27337 10.6666L8.00004 8.93992L9.72671 10.6666L10.6667 9.72659L8.94004 7.99992L10.6667 6.27325L9.72671 5.33325Z" fill="white"/>
</g>
<defs>
<clipPath id="clip0_91_138">
<rect width="16" height="16" fill="white"/>
</clipPath>
</defs>
</svg>
