<svg width="20" height="20" viewBox="0 0 20 20" fill="none" xmlns="http://www.w3.org/2000/svg">
<path d="M18.1667 8.75V5.41667C18.1667 4.97464 17.9911 4.55072 17.6785 4.23816C17.3659 3.92559 16.942 3.75 16.5 3.75H3.16667C2.72464 3.75 2.30072 3.92559 1.98816 4.23816C1.67559 4.55072 1.5 4.97464 1.5 5.41667V8.75C1.94203 8.75 2.36595 8.92559 2.67851 9.23816C2.99107 9.55072 3.16667 9.97464 3.16667 10.4167C3.16667 10.8587 2.99107 11.2826 2.67851 11.5952C2.36595 11.9077 1.94203 12.0833 1.5 12.0833V15.4167C1.5 16.3333 2.25 17.0833 3.16667 17.0833H16.5C17.4167 17.0833 18.1667 16.3333 18.1667 15.4167V12.0833C17.25 12.0833 16.5 11.3333 16.5 10.4167C16.5 9.5 17.25 8.75 18.1667 8.75ZM16.5 7.53333C15.5083 8.10833 14.8333 9.19167 14.8333 10.4167C14.8333 11.6417 15.5083 12.725 16.5 13.3V15.4167H3.16667V13.3C4.15833 12.725 4.83333 11.6417 4.83333 10.4167C4.83333 9.16667 4.16667 8.10833 3.16667 7.53333V5.41667H16.5V7.53333ZM9 12.9167H10.6667V14.5833H9M9 9.58333H10.6667V11.25H9M9 6.25H10.6667V7.91667H9V6.25Z" fill="#2F5FD8"/>
</svg>
